<?xml version="1.0" encoding="UTF-8"?>
<svg width="40x" height="40px" viewBox="0 0 44 44" version="1.1" xmlns="http://www.w3.org/2000/svg" xmlns:xlink="http://www.w3.org/1999/xlink">
    <!-- Generator: Sketch 44.1 (41455) - http://www.bohemiancoding.com/sketch -->
    <title>tax</title>
    <desc>Created with Sketch.</desc>
    <defs></defs>
    <g id="Symbols" stroke="none" stroke-width="1" fill="none" fill-rule="evenodd">
        <g id="website-taxes" transform="translate(1.000000, 1.000000)">
            <g id="tax">
                <circle id="Oval-2-Copy" stroke="#979797" stroke-width="0.5" fill="#FFFFFF" cx="21" cy="21" r="21"></circle>
                <path d="M27.3421139,19.1179798 L27.3421139,9.81632323 C27.3421139,9.36549495 26.9719039,9 26.5153416,9 L11.8753915,9 C11.4187473,9 11.0485374,9.36549495 11.0485374,9.81632323 L11.0485374,31.4964848 C11.0485374,31.9473131 11.4187473,32.3128081 11.8753915,32.3128081 L23.8633025,32.3128081 C24.7866584,32.7530505 25.8215765,33 26.91379,33 C30.7943238,33 33.9514626,29.8831515 33.9514626,26.0518788 C33.9514626,22.3629091 31.0238327,19.3374545 27.3421139,19.1179798 Z M12.7021637,10.6325657 L25.6884875,10.6325657 L25.6884875,19.2114747 C22.3902384,19.7858586 19.8760356,22.6335354 19.8760356,26.0518788 C19.8760356,27.8282828 20.5555587,29.4504242 21.6704448,30.6801616 L12.7021637,30.6801616 L12.7021637,10.6325657 Z M26.91379,31.3674343 C23.9449893,31.3674343 21.5296619,28.9828687 21.5296619,26.0518788 C21.5296619,23.1209697 23.9449893,20.736404 26.91379,20.736404 C29.8825089,20.736404 32.2978363,23.1209697 32.2978363,26.0518788 C32.2978363,28.9828687 29.8825089,31.3674343 26.91379,31.3674343 Z" id="Shape" fill="#50463C" fill-rule="nonzero"></path>
                <path d="M29.3284626,23.6680404 C29.0054804,23.3493333 28.4821281,23.3493333 28.1591459,23.6680404 L24.4991993,27.2814545 C24.1762989,27.6002424 24.1762989,28.1170909 24.4991993,28.4358788 C24.6606904,28.5952323 24.872274,28.6749091 25.0838577,28.6749091 C25.2954413,28.6749091 25.5070249,28.5952323 25.668516,28.4358788 L29.3284626,24.8224646 C29.651363,24.5036768 29.651363,23.9867475 29.3284626,23.6680404 Z" id="Shape" fill="#50463C" fill-rule="nonzero"></path>
                <path d="M25.0723167,25.0506667 C25.2906121,25.0506667 25.5030961,24.9633131 25.6577117,24.8115556 C25.8115089,24.6597172 25.8991708,24.4490505 25.8991708,24.2344242 C25.8991708,24.0197172 25.8115907,23.8091313 25.6577117,23.6572929 C25.5030961,23.5055354 25.2897936,23.4181818 25.0723167,23.4181818 C24.8548399,23.4181818 24.6415374,23.5055354 24.4878221,23.6572929 C24.3340249,23.8091313 24.2455445,24.019798 24.2455445,24.2344242 C24.2455445,24.4491313 24.3340249,24.6597172 24.4878221,24.8115556 C24.6415374,24.9633131 24.8549217,25.0506667 25.0723167,25.0506667 Z" id="Shape" fill="#50463C" fill-rule="nonzero"></path>
                <path d="M28.7550178,27.0530909 C28.5375409,27.0530909 28.3242384,27.1403636 28.1705231,27.292202 C28.0159075,27.4440404 27.9282456,27.6546263 27.9282456,27.8693333 C27.9282456,28.0847677 28.0159075,28.2946263 28.1705231,28.4463838 C28.3242384,28.5982222 28.5376228,28.6855758 28.7550178,28.6855758 C28.9724947,28.6855758 29.1857972,28.5982222 29.3395943,28.4463838 C29.4933915,28.2946263 29.58179,28.0847677 29.58179,27.8693333 C29.58179,27.6545455 29.4933915,27.4440404 29.3395943,27.292202 C29.1857972,27.1403636 28.9724128,27.0530909 28.7550178,27.0530909 Z" id="Shape" fill="#50463C" fill-rule="nonzero"></path>
                <path d="M16.2673274,14.9686465 L22.1233238,14.9686465 C22.579968,14.9686465 22.9501779,14.6031515 22.9501779,14.1523232 C22.9501779,13.7014949 22.579968,13.336 22.1233238,13.336 L16.2673274,13.336 C15.8106833,13.336 15.4404733,13.7014949 15.4404733,14.1523232 C15.4405552,14.6031515 15.8107651,14.9686465 16.2673274,14.9686465 Z" id="Shape" fill="#50463C" fill-rule="nonzero"></path>
                <path d="M16.2673274,19.3047273 L22.1233238,19.3047273 C22.579968,19.3047273 22.9501779,18.9392323 22.9501779,18.488404 C22.9501779,18.0375758 22.579968,17.6720808 22.1233238,17.6720808 L16.2673274,17.6720808 C15.8106833,17.6720808 15.4404733,18.0375758 15.4404733,18.488404 C15.4405552,18.9391515 15.8107651,19.3047273 16.2673274,19.3047273 Z" id="Shape" fill="#50463C" fill-rule="nonzero"></path>
                <path d="M17.731306,22.0080808 L16.2673274,22.0080808 C15.8106833,22.0080808 15.4404733,22.3735758 15.4404733,22.824404 C15.4404733,23.2752323 15.8106833,23.6407273 16.2673274,23.6407273 L17.731306,23.6407273 C18.1879502,23.6407273 18.5581601,23.2752323 18.5581601,22.824404 C18.5581601,22.3735758 18.1879502,22.0080808 17.731306,22.0080808 Z" id="Shape" fill="#50463C" fill-rule="nonzero"></path>
            </g>
        </g>
    </g>
</svg>