<?xml version="1.0" encoding="utf-8"?>
<!-- Generator: Adobe Illustrator 19.2.0, SVG Export Plug-In . SVG Version: 6.00 Build 0)  -->
<svg version="1.1" id="Calque_1" xmlns="http://www.w3.org/2000/svg" xmlns:xlink="http://www.w3.org/1999/xlink" x="0px" y="0px"
	 viewBox="0 0 99 99" style="enable-background:new 0 0 99 99;" xml:space="preserve">
<style type="text/css">
	.st0{fill:#FF995B;}
	.st1{fill:#FFFFFF;}
	.st2{display:none;fill:#FFFFFF;}
</style>
<g id="Calque_1_1_">
</g>
<g id="Calque_2">
	<g>
		<path class="st0" d="M99,49.5C99,76.8,76.8,99,49.5,99C22.2,99,0,76.8,0,49.5S22.2,0,49.5,0C76.8,0,99,22.2,99,49.5z"/>
		<g>
			<g>
				<g>
					<path class="st1" d="M65.7,30.3H35.3c-1.1,0-2-0.9-2-2c0-1.1,0.9-2,2-2h30.3c1.1,0,2,0.9,2,2C67.7,29.4,66.8,30.3,65.7,30.3
						L65.7,30.3z"/>
				</g>
				<g>
					<path class="st1" d="M65.7,73.8H35.3c-1.1,0-2-0.9-2-2c0-1.1,0.9-2,2-2h30.3c1.1,0,2,0.9,2,2C67.7,72.9,66.8,73.8,65.7,73.8
						L65.7,73.8z"/>
				</g>
				<g>
					<path class="st1" d="M62,73.8H39c-1.1,0-2-0.9-2-2V62c0-5,2.8-9.6,7.2-11.9V50c-4.4-2.3-7.2-6.9-7.2-11.9v-9.8c0-1.1,0.9-2,2-2
						h23c1.1,0,2,0.9,2,2v9.8c0,5-2.8,9.6-7.1,11.9v0.1C61.3,52.5,64,57,64,62v9.8C64,72.9,63.1,73.8,62,73.8L62,73.8z M41,69.8h19
						V62c0-3.9-2.3-7.3-5.9-8.8c-0.8-0.3-1.2-1-1.2-1.9v-2.6c0-0.8,0.5-1.5,1.2-1.9c3.6-1.5,5.9-4.9,5.9-8.8v-7.8H41v7.8
						c0,3.9,2.3,7.3,5.9,8.8c0.8,0.3,1.2,1,1.2,1.9v2.6c0,0.8-0.5,1.5-1.2,1.9C43.3,54.7,41,58.2,41,62V69.8L41,69.8z"/>
				</g>
			</g>
			<g>
				<g>
					<path class="st1" d="M50.5,61.1c-0.6,0-1-0.4-1-1V45.7c0-0.6,0.4-1,1-1c0.6,0,1,0.4,1,1v14.5C51.5,60.7,51.1,61.1,50.5,61.1
						L50.5,61.1z"/>
				</g>
				<g>
					<g>
						<path class="st1" d="M43.1,68.8c-0.6,0-1-0.4-1-1c0-0.6,0.4-1,1-1c3.6,0,6.4-2.9,6.4-6.4c0-0.6,0.4-1,1-1c0.6,0,1,0.4,1,1
							C51.5,65,47.7,68.8,43.1,68.8L43.1,68.8z"/>
					</g>
					<g>
						<path class="st1" d="M57.9,68.8c-4.7,0-8.4-3.8-8.4-8.4c0-0.6,0.4-1,1-1c0.6,0,1,0.4,1,1c0,3.6,2.9,6.4,6.4,6.4
							c0.6,0,1,0.4,1,1C58.9,68.4,58.5,68.8,57.9,68.8L57.9,68.8z"/>
					</g>
				</g>
				<g>
					<path class="st1" d="M50.8,46.4h-0.5c-4.2,0-7.7-3.4-7.7-7.7c0-0.6,0.4-1,1-1h13.9c0.6,0,1,0.4,1,1
						C58.5,42.9,55,46.4,50.8,46.4L50.8,46.4z M44.6,39.7c0.5,2.7,2.8,4.7,5.6,4.7h0.5c2.8,0,5.1-2,5.6-4.7H44.6L44.6,39.7z"/>
				</g>
			</g>
		</g>
		<path class="st2" d="M77.9,44.4L77,41.1l-0.7-0.5c-0.1-0.1-9.9-6.4-18.7-14.9c-0.6-0.6-1.2-1.1-1.7-1.7c-3.5-3.6-6.1-6.1-11-6.1
			c-6.3,0-11.4,5.1-11.4,11.4c0,3.6,1.7,6.8,4.3,8.9c-4.3,1.5-7.8,3.7-10.6,6.6c-4.1,4.3-6.1,9.4-6.1,15.2c0,5.8,2.1,10.8,6.2,14.9
			c4.1,4.1,9.1,6.2,14.9,6.2c5.8,0,10.8-2.1,14.9-6.2c2.5-2.5,4.3-5.4,5.3-8.6c0.7,0,1.4-0.2,2.2-0.4c2.6-0.7,4.6-2.3,5.9-4.6
			c0.8-1.5,1.3-3,1.3-4.6c0-0.8-0.1-1.7-0.4-2.6c-0.6-2.2-1.8-3.9-3.6-5.2c3.6-1.2,7.2-2.6,8.7-3.7L77.9,44.4z M58.7,47.3l1.2,3.9
			v0.1c0,0,0,0,0,0l0.1,0.2c0.2-0.1,0.8-0.2,1.6-0.5c0.2,0,0.5,0,0.7,0c1,0,2,0.2,2.8,0.7c1.4,0.8,2.3,2,2.7,3.5
			c0.2,0.5,0.2,1.1,0.2,1.6c0,0.9-0.2,1.9-0.8,2.8c-0.8,1.4-2,2.3-3.5,2.7c-0.5,0.2-1.1,0.2-1.6,0.2c-0.9,0-1.9-0.2-2.8-0.8
			c-0.8-0.5-2.1-1.5-3.8-3c-1.9-2-3.5-3.3-4.6-4c-1.2-0.7-2.5-1.1-3.8-1.1c-0.7,0-1.4,0.1-2.2,0.3c-2.1,0.6-3.7,1.8-4.8,3.7
			c-0.7,1.2-1.1,2.5-1.1,3.8h0v0c0,0.7,0.1,1.4,0.3,2.2c0.6,2.1,1.7,3.6,3.5,4.6c1.1,0.6,2.3,0.9,3.5,0.9c0.7,0,1.5-0.1,2.2-0.3
			l0.4-3.7c-0.7,0.1-1.3,0.2-1.8,0.2c-1,0-1.7-0.2-2.3-0.5c-0.9-0.5-1.5-1.2-1.8-2.3C43,62.2,43,61.8,43,61.4c0-0.6,0.2-1.3,0.6-2
			c0.5-0.9,1.3-1.6,2.4-1.9c0.4-0.1,0.7-0.1,1.1-0.1c0.7,0,1.3,0.2,2,0.5c0.6,0.3,1.6,1.2,3,2.5c2.1,2.2,3.9,3.7,5.3,4.5
			c0.4,0.2,0.7,0.4,1.1,0.6c-0.8,2.4-2.2,4.6-4.2,6.5c-3.4,3.4-7.4,5-12.1,5c-4.8,0-8.8-1.7-12.2-5c-3.3-3.4-5-7.4-5-12.1
			c0-4.7,1.6-8.8,4.9-12.4c3.1-3.4,7.8-5.8,13.9-7l1-0.2v-4.1c-4.1-0.4-7-3.1-7-7s3.1-7,7-7c3,0,4.4,1.2,8,4.9
			c0.5,0.5,1,1.1,1.7,1.6c0,0,0,0,0,0c0.4,0.4,0.9,0.9,1.4,1.3c6.3,5.9,12.6,10.5,15.9,12.7C68.3,44.3,62.4,46.2,58.7,47.3"/>
	</g>
</g>
</svg>
